# xmcd
#
# Track frame offsets:
#	150
#	27673
#	47636
#	73762
#	108086
#	139818
#	170403
#	199650
#	220479
#	249617
#
# Disc length: 3422 seconds
#
# Revision: 11
# Processed by: cddbd v1.5.2PL0 Copyright (c) Steve Scherf et al.
# Submitted via: Jack! The Knife 20 Magnifico
#
DISCID=960d5c0a
DTITLE=Voivod - Target Earth
DYEAR=2013
DGENRE=Metal
TTITLE0=Target Earth
TTITLE1=Kluskap O'Kom
TTITLE2=Empathy For The Enemy
TTITLE3=Mechanical Mind
TTITLE4=Warchaic
TTITLE5=Resistance
TTITLE6=Kaleidos
TTITLE7=Corps Étranger
TTITLE8=Artefact
TTITLE9=Defiance
EXTD=Voivod
EXTT0=Bélanger, Mongrain, Thériault, Langevin
EXTT1=Bélanger, Mongrain, Thériault, Langevin
EXTT2=Bélanger, Mongrain, Thériault, Langevin
EXTT3=Bélanger, Mongrain, Thériault, Langevin
EXTT4=Bélanger, Mongrain, Thériault, Langevin
EXTT5=Bélanger, Mongrain, Thériault, Langevin
EXTT6=Bélanger, Mongrain, Thériault, Langevin
EXTT7=Bélanger, Mongrain, Thériault, Langevin
EXTT8=Bélanger, Mongrain, Thériault, Langevin
EXTT9=Bélanger, Mongrain, Thériault, Langevin
PLAYORDER=
